<svg width="23" height="23" viewBox="0 0 23 23" fill="none" xmlns="http://www.w3.org/2000/svg">
<path d="M11.5 0C5.15908 0 0 5.15863 0 11.5C0 17.8414 5.15908 23 11.5 23C17.8409 23 23 17.8414 23 11.5C23 5.15863 17.8409 0 11.5 0ZM11.5 22.1154C5.64694 22.1154 0.884615 17.3531 0.884615 11.5C0.884615 5.64694 5.64694 0.884615 11.5 0.884615C17.3531 0.884615 22.1154 5.64694 22.1154 11.5C22.1154 17.3531 17.3531 22.1154 11.5 22.1154Z" fill="#FF0000"/>
<path d="M11.5 4.4231C11.2559 4.4231 11.0577 4.62081 11.0577 4.8654V14.5962C11.0577 14.8408 11.2559 15.0385 11.5 15.0385C11.7442 15.0385 11.9424 14.8408 11.9424 14.5962V4.8654C11.9424 4.62081 11.7442 4.4231 11.5 4.4231Z" fill="#FF0000"/>
<path d="M11.5 16.3654C11.2559 16.3654 11.0577 16.5631 11.0577 16.8077V17.6923C11.0577 17.9369 11.2559 18.1346 11.5 18.1346C11.7442 18.1346 11.9424 17.9369 11.9424 17.6923V16.8077C11.9424 16.5631 11.7442 16.3654 11.5 16.3654Z" fill="#FF0000"/>
</svg>
